<?xml version="1.0" encoding="UTF-8"?>
<svg width="104px" height="104px" viewBox="0 0 104 104" version="1.1" xmlns="http://www.w3.org/2000/svg" xmlns:xlink="http://www.w3.org/1999/xlink">
    <!-- Generator: Sketch 52.4 (67378) - http://www.bohemiancoding.com/sketch -->
    <title>administrator</title>
    <desc>Created with Sketch.</desc>
    <g id="Boame-Web-app" stroke="none" stroke-width="1" fill="none" fill-rule="evenodd">
        <g id="Dashboard-Menu-Clicked" transform="translate(-2598.000000, -326.000000)" fill="#000000">
            <g id="administrator" transform="translate(2598.000000, 326.000000)">
                <path d="M58.7685268,103.999981 L45.2225594,103.999981 C44.442621,104.002062 43.7938631,103.400664 43.7369302,102.622803 L43.0342275,93.019697 C38.158188,91.974004 33.5125442,90.0516168 29.3233553,87.3460797 L22.0304014,93.6436612 C21.4413281,94.15167 20.5601255,94.1192729 20.0099456,93.5693798 L10.4291226,83.9855868 C9.8792295,83.435407 9.84683234,82.5542045 10.3548412,81.9651313 L16.6375672,74.6855489 C13.9311514,70.4909002 12.0087726,65.8397408 10.9639492,60.9583365 L1.37718369,60.255634 C0.599323215,60.1987011 -0.00207534343,59.5499433 5.3827658e-06,58.7700049 L5.3827658e-06,45.2314674 C-0.00207534343,44.4515291 0.599323215,43.8027713 1.37718369,43.7458384 L10.9505785,43.0431358 C12.0050422,38.1625514 13.931574,33.5123028 16.6375672,29.3159234 L10.3548412,22.0363411 C9.84683234,21.4472678 9.8792295,20.5660653 10.4291226,20.0158856 L20.0144025,10.4306069 C20.5645823,9.88071387 21.4457849,9.84831672 22.0348583,10.3563255 L29.3278122,16.653907 C33.5170318,13.9484285 38.1626645,12.0260459 43.0386844,10.9802897 L43.7413871,1.37718351 C43.79832,0.599323138 44.4470779,-0.00207534317 45.2270163,5.38276511e-06 L58.7714981,5.38276511e-06 C59.5514365,-0.00207534317 60.2001944,0.599323138 60.2571273,1.37718351 L60.9598299,10.9802897 C65.8359875,12.0256037 70.4816976,13.9480184 74.6707022,16.653907 L81.9651417,10.3563255 C82.5542151,9.84831672 83.4354177,9.88071387 83.9855975,10.4306069 L93.5708774,20.0158856 C94.1207705,20.5660653 94.1531677,21.4472678 93.6451588,22.0363411 L87.3624328,29.3159234 C90.068426,33.5123028 91.9949578,38.1625514 93.0494215,43.0431358 L102.622816,43.7458384 C103.400677,43.8027713 104.002075,44.4515291 103.999995,45.2314674 L103.999995,58.7744618 C104.002075,59.5544001 103.400677,60.2031579 102.622816,60.2600909 L93.0360508,60.9627934 C91.9912274,65.8441977 90.0688486,70.4953571 87.3624328,74.6900058 L93.6451588,81.9695882 C94.1531677,82.5586614 94.1207705,83.4398639 93.5708774,83.9900437 L83.9855975,93.5753223 C83.4354177,94.1252154 82.5542151,94.1576125 81.9651417,93.6496038 L74.6707022,87.3520222 C70.4815594,90.0576471 65.835899,91.9800412 60.9598299,93.0256396 L60.2571273,102.628746 C60.1971564,103.405401 59.5474849,104.003851 58.7685268,103.999981 Z M46.6056802,101.028723 L57.3883772,101.028723 L58.0732523,91.6692602 C58.1219001,90.9957082 58.6187025,90.4397047 59.2825545,90.3158522 C64.539846,89.3402917 69.5343863,87.2739522 73.9442295,84.2500288 C74.5008106,83.8708979 75.2428,83.913576 75.7522403,84.3540228 L82.853548,90.4852139 L90.4867111,82.8535375 L84.3703755,75.7730294 C83.9311417,75.2635132 83.8890905,74.5224374 84.2678671,73.9665045 C87.2900167,69.5484806 89.3532847,64.5464356 90.3247775,59.282547 C90.4478855,58.6186123 91.0032618,58.1212149 91.6767001,58.0717593 L101.021308,57.3943124 L101.021308,46.6116168 L91.7004701,45.9267418 C91.0289636,45.8771267 90.4747901,45.3820894 90.3500332,44.720411 C89.3624644,39.4570606 87.2912354,34.4565661 84.2678671,30.0364535 C83.8906229,29.4811586 83.9326416,28.7418739 84.3703755,28.2328998 L90.4852254,21.1479349 L82.8520624,13.5162585 L75.7507546,19.6474496 C75.240968,20.0874347 74.4989951,20.1295021 73.9427439,19.749958 C69.531063,16.7250971 64.5344912,14.6582485 59.2751264,13.6826489 C58.6112743,13.5587964 58.1144719,13.0027929 58.0658242,12.3292409 L57.3868916,2.977206 L46.6041946,2.977206 L45.9193195,12.336669 C45.8706718,13.010221 45.3738694,13.5662246 44.7100173,13.6900771 C39.4524465,14.6662443 34.4575428,16.7325249 30.0468567,19.7559005 C29.4902756,20.1350313 28.7482862,20.0923532 28.238846,19.6519064 L21.1390238,13.5207154 L13.5058608,21.1523918 L19.6207107,28.2328998 C20.0599445,28.7424161 20.1019957,29.4834918 19.7232192,30.0394248 C16.7003763,34.4596596 14.6296564,39.4601464 13.6425387,44.7233823 C13.5177818,45.3850607 12.9636083,45.8800979 12.2921017,45.9297131 L2.96977823,46.6116168 L2.96977823,57.3943124 L12.306958,58.0777018 C12.9803962,58.1271574 13.5357725,58.6245548 13.6588806,59.2884895 C14.633222,64.5514013 16.6990129,69.5519103 19.7232192,73.9679901 C20.101229,74.5236043 20.0591941,75.263784 19.6207107,75.7730294 L13.5058608,82.8579943 L21.1390238,90.4896708 L28.238846,84.3584797 C28.7480163,83.9187842 29.4891086,83.8761226 30.0453711,84.2544856 C34.4581935,87.2795534 39.45567,89.3468637 44.7159598,90.3232803 C45.3798119,90.4471328 45.8766143,91.0031364 45.925262,91.6766884 L46.6056802,101.028723 Z" id="Shape" fill-rule="nonzero"></path>
                <path d="M52,80 C36.536027,80 24,67.463973 24,52 C24,36.536027 36.536027,24 52,24 C67.463973,24 80,36.536027 80,52 C79.9828696,67.4568718 67.4568718,79.9828696 52,80 Z M52,26.9617804 C41.8722521,26.9617804 32.7417754,33.0626676 28.8661923,42.4195438 C24.9906093,51.77642 27.133171,62.5465574 34.2947819,69.707745 C41.4563927,76.8689325 52.2266568,79.0108575 61.5833039,75.1347214 C70.939951,71.2585853 77.0402984,62.1277478 77.0396997,52 C77.0242012,38.1773805 65.8226195,26.9757988 52,26.9603003 L52,26.9617804 Z" id="Shape" fill-rule="nonzero"></path>
                <path d="M51.9993995,65 L51.8892972,65 C48.5774901,64.755112 45.5401409,63.0772508 43.579548,60.4096136 C42.3417994,58.8116784 41.4524669,56.9744251 40.9683376,55.0151693 C39.7018859,54.2703266 38.9473796,52.8947075 39.0028624,51.4317064 C38.9561313,50.1439405 39.5136801,48.9077541 40.5115618,48.0866474 L40.5115618,47.2307625 C40.5115618,46.9474419 40.5209849,46.6641213 40.5398313,46.3808006 C40.5973522,45.5629941 41.3101239,44.9464384 42.1318513,45.0036848 C42.9535787,45.0609313 43.5730905,45.7703019 43.5155696,46.5881084 C43.499203,46.80282 43.4932515,47.0175317 43.4932515,47.2307625 L43.4932515,48.185859 C43.5051366,49.0919476 43.0576847,49.9430594 42.3029562,50.449956 C42.0686652,50.7184488 41.953778,51.0700145 41.9845522,51.4243026 C41.9560988,51.7766285 42.0844677,52.123628 42.3356893,52.373476 C43.0919957,52.7216926 43.6463023,53.395582 43.8399251,54.2022267 C44.2185604,55.7999283 44.9364178,57.2984686 45.9452599,58.5971514 C47.3608874,60.5697971 49.572948,61.827182 51.9993995,62.0384604 C54.4239208,61.8317525 56.635566,60.5777739 58.0505633,58.6075168 C58.3181514,58.2655766 58.5665097,57.9091527 58.7944979,57.5398818 C59.4243167,56.5087411 59.8872457,55.3854235 60.1663133,54.2111113 C60.3508355,53.4054078 60.9004236,52.7304521 61.6541824,52.3838414 C61.9171148,52.1376199 62.0524868,51.7852594 62.0216861,51.4272641 C61.9991313,50.9999591 61.8133759,50.597379 61.5024198,50.301879 C60.823044,49.8451402 60.6392951,48.9294592 61.09028,48.2480513 C61.5404961,47.5751583 62.4497781,47.3859968 63.1331244,47.8230704 C64.2861332,48.6680245 64.9758637,50.0009114 64.9974244,51.4257833 C65.0498749,52.88576 64.298017,54.2579675 63.0364129,55.0048039 C62.5509918,56.9701034 61.6552046,58.8116553 60.4073481,60.4096136 C58.4523173,63.0767784 55.4191179,64.7550518 52.1109897,65 L51.9993995,65 Z" id="Path"></path>
                <path d="M70.5682315,72 C69.7774876,72 69.136463,71.3470495 69.136463,70.5415943 L69.136463,68.7477553 C69.1376705,68.075558 68.7733276,67.4579583 68.190064,67.1435091 C64.2979896,65.3579411 60.2566464,63.9312614 56.1145285,62.8805893 C55.6080328,62.7633492 55.2035947,62.3758944 55.0576862,61.8681262 C54.9117776,61.3603579 55.0472849,60.8119216 55.4117821,60.4350001 C55.7762792,60.0580786 56.3125933,59.9117936 56.8132315,60.0527407 C61.1823886,61.1553226 65.4415761,62.668841 69.5359264,64.5737983 C71.0521875,65.3935626 72.0000745,66.9992126 72,68.7477553 L72,70.5415943 C72,70.9283876 71.8491534,71.2993387 71.5806447,71.5728429 C71.312136,71.846347 70.9479601,72 70.5682315,72 Z" id="Path"></path>
                <path d="M33.4333347,72 C32.6417258,72 32.0000001,71.3465168 32.0000001,70.5404043 L32.0000001,68.7451017 C31.999644,66.9954473 32.9479708,65.3885644 34.4653355,64.5677389 C38.5706434,62.6600992 42.8412533,61.1453296 47.222013,60.0429924 C47.9906652,59.8495255 48.767795,60.3272217 48.9577811,61.1099569 C49.1477672,61.892692 48.6786657,62.6840602 47.9100136,62.8775272 C43.7585819,63.9285692 39.708017,65.3564146 35.8069367,67.1439253 C35.22359,67.4590244 34.8594462,68.0770504 34.8609359,68.7494805 L34.8609359,70.5447831 C34.858579,71.3469119 34.2210287,71.9967951 33.4333347,72 Z" id="Path"></path>
                <path d="M61.9375652,50 C61.8425205,49.9999234 61.7476924,49.9914582 61.6543233,49.9747154 C60.9898406,49.8183007 60.4727609,49.3267371 60.3126512,48.6992503 C60.086681,47.3537658 59.1339527,46.2160323 57.7977613,45.6960074 C56.3471707,45.0975005 54.6721186,45.2422899 53.3612988,46.0794898 C52.2655863,46.7759676 51.090504,47.3545665 49.8580437,47.8044581 C48.237816,48.4268866 46.4868106,48.6879338 44.7418007,48.5672087 C43.2165813,48.4962614 41.748811,47.9967598 40.5274594,47.1330128 C38.7351888,45.6483967 37.8076019,43.4436943 38.03344,41.20519 C38.0614277,40.6432901 38.4357669,40.1488066 38.9904994,39.9409624 C39.5148001,39.7451634 40.1131823,39.8838686 40.4812463,40.286518 C40.730201,40.4031079 41.6917327,40.0631711 42.9096728,38.411247 C45.4668823,35.2531145 49.6066086,33.6057065 53.7921246,34.0805652 C55.7968017,34.4204536 57.4805532,35.6974291 58.2613836,37.4700998 C59.5095457,37.2240311 60.8100853,37.478489 61.8511019,38.1724485 C64.0484627,39.7316625 64.5538259,43.2293589 63.3984971,48.8664093 C63.2611357,49.5244382 62.6492845,49.999196 61.9375652,50 Z M41.1416471,43.0369153 C41.3184493,43.779086 41.7515136,44.4450351 42.373004,44.9304473 C43.1356648,45.4481486 44.0439583,45.7414203 44.9833017,45.7732657 C46.2786772,45.8559942 47.5768722,45.6565235 48.7772523,45.1903163 C49.8031815,44.815156 50.7816576,44.3336639 51.6946438,43.7547157 C53.8474825,42.3796286 56.5983228,42.1409983 58.9814143,43.1226019 C59.7242703,43.4246075 60.409248,43.8398717 61.00883,44.351712 C61.1251082,41.4833201 60.3692996,40.6405017 60.0636965,40.4185595 C59.3183231,39.8777511 57.9766509,40.4677239 57.964725,40.4733427 C57.5506879,40.6612104 57.0683955,40.6612104 56.6543585,40.4733427 C56.2406738,40.2869684 55.9410296,39.9315725 55.8419015,39.5097204 C55.6789812,38.1704664 54.6081416,37.0879404 53.2017889,36.8407954 C50.1826972,36.5887849 47.231005,37.7818317 45.3440624,40.0168161 C44.4395211,41.5218649 42.9212477,42.6129842 41.1416471,43.0369153 Z" id="Shape" fill-rule="nonzero"></path>
                <path d="M62.5074627,78 C61.6831571,78 61.0149254,77.3350764 61.0149254,76.5148515 L61,70.4851485 C61,69.6649236 61.6682317,69 62.4925373,69 C63.3168429,69 63.9850746,69.6649236 63.9850746,70.4851485 L64,76.5148515 C64,77.3350764 63.3317683,78 62.5074627,78 Z" id="Path"></path>
                <path d="M41.5074627,78 C40.6831571,78 40.0149254,77.3328746 40.0149254,76.5099338 L40,70.4900662 C40,69.6671254 40.6682317,69 41.4925373,69 C42.3168429,69 42.9850746,69.6671254 42.9850746,70.4900662 L43,76.5099338 C43,77.3328746 42.3317683,78 41.5074627,78 Z" id="Path"></path>
            </g>
        </g>
    </g>
</svg>