<?xml version="1.0" encoding="UTF-8"?>
<svg width="77px" height="37px" viewBox="0 0 77 37" version="1.1" xmlns="http://www.w3.org/2000/svg" xmlns:xlink="http://www.w3.org/1999/xlink">
    <!-- Generator: Sketch 52.4 (67378) - http://www.bohemiancoding.com/sketch -->
    <title>arrow(1)</title>
    <desc>Created with Sketch.</desc>
    <g id="Boame-Web-app" stroke="none" stroke-width="1" fill="none" fill-rule="evenodd">
        <g id="Knowledge-Center-Edit" transform="translate(-132.000000, -222.000000)" fill="#000000">
            <g id="arrow(1)" transform="translate(170.500000, 240.500000) scale(-1, 1) translate(-170.500000, -240.500000) translate(132.000000, 222.000000)">
                <path d="M76.1177708,16.3878659 C76.1168685,16.3869708 76.1161165,16.3859264 76.1150638,16.3850312 L60.3986497,0.86889349 C59.2212421,-0.293474099 57.3168466,-0.289147484 56.144853,0.879038657 C54.9730098,2.0470756 54.9775215,3.93631457 56.1549292,5.09883135 L66.7069317,15.5161275 L3.00781101,15.5161275 C1.34659699,15.5161275 0,16.8520073 0,18.5000002 C0,20.147993 1.34659699,21.4838728 3.00781101,21.4838728 L66.7067814,21.4838728 L56.1550796,31.901169 C54.9776719,33.0636858 54.9731602,34.9529247 56.1450034,36.1209617 C57.316997,37.289297 59.2215429,37.2933252 60.3988001,36.1311069 L76.1152142,20.6149691 C76.1161165,20.6140739 76.1168685,20.6130296 76.1179212,20.6121344 C77.2959304,19.4457386 77.2921706,17.5503827 76.1177708,16.3878659 Z" id="Path"></path>
            </g>
        </g>
    </g>
</svg>