<?xml version="1.0" encoding="UTF-8"?>
<svg width="65px" height="32px" viewBox="0 0 65 32" version="1.1" xmlns="http://www.w3.org/2000/svg" xmlns:xlink="http://www.w3.org/1999/xlink">
    <!-- Generator: Sketch 52.4 (67378) - http://www.bohemiancoding.com/sketch -->
    <title>arrow(1)</title>
    <desc>Created with Sketch.</desc>
    <g id="Boame-Web-app" stroke="none" stroke-width="1" fill="none" fill-rule="evenodd">
        <g id="Forget-Password" transform="translate(-1633.000000, -184.000000)" fill="#000000">
            <g id="arrow(1)" transform="translate(1665.500000, 200.000000) scale(-1, 1) translate(-1665.500000, -200.000000) translate(1633.000000, 184.000000)">
                <path d="M64.2552611,14.1732894 C64.2544994,14.1725153 64.2538646,14.171612 64.2529759,14.1708378 L50.9858731,0.75147545 C49.9919576,-0.253815437 48.384351,-0.250073499 47.3950058,0.760249649 C46.4057875,1.77044377 46.4095961,3.40438017 47.4035116,4.40980009 L56.3110463,13.4193535 L2.53906124,13.4193535 C1.13673772,13.4193535 0,14.574709 0,16.0000001 C0,17.4252913 1.13673772,18.5806468 2.53906124,18.5806468 L56.3109193,18.5806468 L47.4036386,27.5902002 C46.4097231,28.5956201 46.4059145,30.2295565 47.3951327,31.2397506 C48.3844779,32.2502028 49.9922115,32.2536867 50.9860001,31.2485248 L64.2531029,17.8291625 C64.2538646,17.8283883 64.2544994,17.827485 64.255388,17.8267109 C65.2498114,16.8179361 65.2466375,15.1787094 64.2552611,14.1732894 Z" id="Path"></path>
            </g>
        </g>
    </g>
</svg>