<?xml version="1.0" encoding="UTF-8"?>
<svg width="88px" height="95px" viewBox="0 0 88 95" version="1.1" xmlns="http://www.w3.org/2000/svg" xmlns:xlink="http://www.w3.org/1999/xlink">
    <!-- Generator: Sketch 52.4 (67378) - http://www.bohemiancoding.com/sketch -->
    <title>cases</title>
    <desc>Created with Sketch.</desc>
    <g id="Boame-Web-app" stroke="none" stroke-width="1" fill="none" fill-rule="evenodd">
        <g id="Dashboard-Menu-Clicked" transform="translate(-2607.000000, -1362.000000)" fill="#FFFFFF">
            <g id="cases" transform="translate(2607.000000, 1362.000000)">
                <path d="M0,86.5808126 C0,91.2284614 3.90295064,95 8.62451963,95 L59.2525691,95 C63.4835475,95 67.0062181,91.9676561 67.6920287,87.9918662 C71.7575418,87.3387115 74.8716292,83.8634494 74.8716292,79.6796676 L74.8716292,41.754045 L78.9864918,41.754045 C79.2731531,41.7600304 79.5547346,41.6792277 79.7971269,41.5228597 L87.3243499,36.48242 C87.7459962,36.2011071 88,35.7185358 88,35.2008003 C88,34.6838131 87.7459962,34.2012415 87.3243499,33.9199286 L79.7971269,28.8286134 C79.5598147,28.6542892 79.2782333,28.5532858 78.9864918,28.5383224 L74.8716292,28.5383224 L74.8716292,20.1797369 C74.8346171,19.6657422 74.5958535,19.1899044 74.211219,18.8607084 L57.0768445,0.864910406 C56.9810487,0.723505813 56.8634811,0.599309048 56.7277706,0.498305685 L56.6813242,0.453415515 C56.4011942,0.161628064 56.0187371,-0.00222176722 55.6210394,2.276047e-05 L15.6800212,2.276047e-05 C11.4490425,2.276047e-05 7.89589141,3.033115 7.21008104,7.00815652 C3.14456774,7.66131125 0,11.1365734 0,15.3203552 L0,86.5808126 Z M25.2668525,38.6895296 L25.2668525,31.6028378 L77.4726287,31.6028378 L77.4726287,38.6895296 L25.2668525,38.6895296 Z M80.4451996,37.4303549 L80.4451996,32.9817201 L83.7610385,35.2060375 L80.4451996,37.4303549 Z M57.4077752,5.51929275 L69.7327683,18.5786473 L59.3940854,18.5786473 C58.8780946,18.5906181 58.3780699,18.3908559 58.0057729,18.022755 C57.6327502,17.654654 57.4179355,17.1481411 57.4077752,16.6161903 L57.4077752,5.51929275 Z M15.6800212,3.06453816 L54.4352043,3.06453816 L54.4352043,16.6161903 C54.4577019,19.4166008 56.6776955,21.6671043 59.3940854,21.6431627 L71.8990583,21.6431627 L71.8990583,28.5383224 L23.8545912,28.5383224 C23.0033152,28.5727384 22.322585,29.2790134 22.2942816,30.15662 L22.2942816,30.3526411 L17.8709858,30.2621123 L17.8579228,30.2621123 C17.0284188,30.2845576 16.3687345,30.9863435 16.3716374,31.8415049 L16.4180838,38.5107163 C16.4246153,39.3524107 17.088654,40.0310032 17.9043693,40.0302551 L22.2942816,40.0302551 L22.2942816,40.255455 C22.2942816,41.1016384 23.0345215,41.754045 23.8545912,41.754045 L26.9948044,41.754045 L26.9744841,44.0524316 C26.9614212,44.9285418 27.2800146,45.7754733 27.8620462,46.4136646 C28.3627966,46.9643197 29.0558643,47.2860339 29.7873955,47.3084792 L47.8340069,47.3084792 C48.6548023,47.3084792 49.3202923,46.6224048 49.3202923,45.7762215 C49.3202923,44.9300381 48.6548023,44.2439638 47.8340069,44.2439638 L29.9528608,44.2439638 C29.9499579,44.0524316 29.9477807,44.1481977 29.9477807,44.1250043 L29.9688269,41.754045 L71.8990583,41.754045 L71.8990583,79.6796676 C71.8990583,82.6371942 69.3909516,85.040325 66.3087961,85.040325 L15.6800212,85.040325 C12.5978658,85.040325 10.0324267,82.6371942 10.0324267,79.6796676 L10.0324267,8.66236623 C10.0324267,8.58455627 10.0810504,8.50525006 10.0810504,8.42444741 C10.0854046,8.35860821 10.0854046,8.29276901 10.0810504,8.22618169 C10.1899091,5.35993201 12.6675354,3.06453816 15.6800212,3.06453816 Z M22.2942816,36.9657397 L19.3804945,36.9657397 L19.3173563,33.3812442 L22.2942816,33.4171565 L22.2942816,36.9657397 Z M2.97257089,15.3203552 C2.97257089,12.863356 4.83042769,10.7886731 7.05985585,10.1557191 L7.05985585,79.6796676 C7.05985585,84.3265683 10.9591779,88.1048404 15.6800212,88.1048404 L64.6098732,88.1048404 C63.9226113,90.4032269 61.7824474,91.9354846 59.2525691,91.9354846 L8.62451963,91.9354846 C5.54236417,91.9354846 2.97257089,89.5383393 2.97257089,86.5808126 L2.97257089,15.3203552 Z" id="Shape" fill-rule="nonzero"></path>
                <path d="M17.4640966,54 L41.5359034,54 C42.3444449,54 43,53.3283692 43,52.5 C43,51.6716308 42.3444449,51 41.5359034,51 L17.4640966,51 C16.6548399,51 16,51.6716308 16,52.5 C16,53.3283692 16.6548399,54 17.4640966,54 Z" id="Path"></path>
                <path d="M17.4699268,62 L59.5300732,62 C60.3425523,62 61,61.3283692 61,60.5 C61,59.6716308 60.3425523,59 59.5300732,59 L17.4699268,59 C16.6574475,59 16,59.6716308 16,60.5 C16,61.3283692 16.6574475,62 17.4699268,62 Z" id="Path"></path>
                <path d="M17.4699268,69 L59.5300732,69 C60.3425523,69 61,68.3283692 61,67.5 C61,66.6716308 60.3425523,66 59.5300732,66 L17.4699268,66 C16.6574475,66 16,66.6716308 16,67.5 C16,68.3283692 16.6574475,69 17.4699268,69 Z" id="Path"></path>
                <path d="M17.4699268,77 L59.5300732,77 C60.3425523,77 61,76.3283692 61,75.5 C61,74.6716308 60.3425523,74 59.5300732,74 L17.4699268,74 C16.6574475,74 16,74.6716308 16,75.5 C16,76.3283692 16.6574475,77 17.4699268,77 Z" id="Path"></path>
            </g>
        </g>
    </g>
</svg>