<?xml version="1.0" encoding="UTF-8"?>
<svg width="26px" height="26px" viewBox="0 0 26 26" version="1.1" xmlns="http://www.w3.org/2000/svg" xmlns:xlink="http://www.w3.org/1999/xlink">
    <!-- Generator: Sketch 52.4 (67378) - http://www.bohemiancoding.com/sketch -->
    <title>close-black-thin</title>
    <desc>Created with Sketch.</desc>
    <g id="Boame-mobile-app" stroke="none" stroke-width="1" fill="none" fill-rule="evenodd">
        <g id="Select-a-role" transform="translate(-274.000000, -21.000000)" fill="#FFFFFF">
            <g id="close-black-thin" transform="translate(274.000000, 21.000000)">
                <path d="M13.5954719,12.9973806 L25.8772446,0.715607807 C26.0409185,0.551881584 26.0409185,0.286481585 25.8772446,0.122755361 C25.7135184,-0.0409184536 25.4481184,-0.0409184536 25.2843922,0.122755361 L13.0026194,12.4045281 L0.720846634,0.122755361 C0.554290315,-0.0380883589 0.288890316,-0.0334763526 0.127994187,0.133079966 C-0.0289188451,0.29554837 -0.0289188451,0.553139403 0.127994187,0.715607807 L12.409767,12.9973806 L0.127994187,25.2791534 C-0.038562131,25.4400495 -0.0431741373,25.7054495 0.117721992,25.8720058 C0.278618121,26.0385621 0.544018119,26.0431741 0.710574438,25.882278 C0.714085852,25.8789238 0.717492447,25.8754648 0.720846634,25.8720058 L13.0026194,13.590233 L25.2843922,25.8720058 C25.4509485,26.0329019 25.7163485,26.0282899 25.8772446,25.8617336 C26.0342101,25.6992652 26.0342101,25.4416218 25.8772446,25.2791534 L13.5954719,12.9973806 Z" id="Path"></path>
            </g>
        </g>
    </g>
</svg>