<?xml version="1.0" encoding="UTF-8"?>
<svg width="99px" height="99px" viewBox="0 0 99 99" version="1.1" xmlns="http://www.w3.org/2000/svg" xmlns:xlink="http://www.w3.org/1999/xlink">
    <!-- Generator: Sketch 52.4 (67378) - http://www.bohemiancoding.com/sketch -->
    <title>counselor</title>
    <desc>Created with Sketch.</desc>
    <g id="Boame-Web-app" stroke="none" stroke-width="1" fill="none" fill-rule="evenodd">
        <g id="Dashboard-Menu-Clicked" transform="translate(-2611.000000, -672.000000)" fill="#FFFFFF">
            <g id="counselor" transform="translate(2611.000000, 672.000000)">
                <path d="M63.1701974,68.8919722 L46.9650494,65.3695289 L46.9650494,63.7102362 C49.0864638,62.2281846 50.8597862,60.2876045 52.1395724,58.0336765 C53.5374178,57.2575654 54.6109046,55.9721125 55.1044409,54.4319887 C59.0454276,54.1325538 62.1606085,50.8514732 62.1606085,46.858403 C62.1606085,42.6693391 58.7314146,39.2606205 54.5171875,39.2606205 L54.3711348,39.2606205 L54.3711348,37.2674124 C54.3711348,27.7459876 46.5786184,20 37,20 C27.4219901,20 19.6294737,27.7459876 19.6294737,37.2674124 L19.6294737,39.2606205 L19.4834211,39.2606205 C15.2685854,39.2606205 11.84,42.6693391 11.84,46.858403 C11.84,51.0480718 15.2685854,54.4561855 19.4834211,54.4561855 L20.3372204,54.4561855 C21.4514802,58.2072881 23.8138816,61.4315064 26.946102,63.6491393 L26.946102,65.3713437 L10.8206743,68.8871328 C6.25348684,69.8828294 0,71.2469218 0,78.7957058 L0,97.0642592 C0,98.133756 0.871447368,99 1.94736842,99 L9.89202307,99 C10.9673356,99 11.8393915,98.133756 11.8393915,97.0642592 C11.8393915,95.9947625 10.9673356,95.1285185 9.89202307,95.1285185 L3.89473684,95.1285185 L3.89473684,78.7957058 C3.89473684,75.0306901 5.92791115,73.9176391 11.655,72.6684815 L27.7670395,69.1557169 L35.0672368,95.1285185 L25.4715789,95.1285185 C24.3962664,95.1285185 23.5242105,95.9947625 23.5242105,97.0642592 C23.5242105,98.133756 24.3962664,99 25.4715789,99 L72.0526316,99 C73.1285526,99 74,98.133756 74,97.0642592 L74,82.2649163 C74,79.153213 72.9192105,76.1050262 70.9566283,73.6811158 C68.9928289,71.2572053 66.2281743,69.5561733 63.1701974,68.8919722 Z M58.2652632,46.858403 C58.2652632,48.9133128 56.5838322,50.584704 54.5165789,50.584704 L54.3705263,50.584704 L54.3705263,43.1321021 L54.5165789,43.1321021 C56.5838322,43.1321021 58.2652632,44.8040981 58.2652632,46.858403 Z M23.5242105,37.2674124 C23.5242105,29.8813517 29.5695724,23.8714815 37,23.8714815 C44.4304276,23.8714815 50.4757895,29.8813517 50.4757895,37.2674124 L50.4757895,39.2606205 L49.0913322,39.2606205 C48.527204,39.2606205 48.0081085,39.033171 47.6283717,38.6194064 C47.2486348,38.2056418 47.0678947,37.6708934 47.1190132,37.1131582 C47.1896053,36.330393 46.7788322,35.583318 46.0771711,35.2203666 C45.7935854,35.0733712 45.4856579,35.0019909 45.1795559,35.0019909 C44.7280099,35.0019909 44.2807237,35.157455 43.9204605,35.4599145 C41.007319,37.9104414 37.3006251,39.2606205 33.4831743,39.2606205 L23.5242105,39.2606205 L23.5242105,37.2674124 Z M19.6294737,50.584704 L19.4834211,50.584704 C17.4161678,50.584704 15.7347368,48.9133128 15.7347368,46.858403 C15.7347368,44.8040981 17.4161678,43.1321021 19.4834211,43.1321021 L19.6294737,43.1321021 L19.6294737,50.584704 Z M23.5242105,49.5750942 L23.5242105,43.1321021 L33.4831743,43.1321021 C37.2056907,43.1321021 40.8430099,42.0982955 43.9849672,40.1800974 C44.1991777,40.5539374 44.4553783,40.9072101 44.752352,41.2302368 C45.8629605,42.4394699 47.4439802,43.1321021 49.0913322,43.1321021 L50.4757895,43.1321021 L50.4757895,49.5750942 C50.4757895,51.4830086 50.0704935,53.2971607 49.3438816,54.9413306 C49.2489474,54.9522191 49.1521875,54.9594781 49.0542105,54.9594781 L37.1338816,54.9594781 C36.0579605,54.9594781 35.1865132,55.826932 35.1865132,56.8952188 C35.1865132,57.9647156 36.0579605,58.8309596 37.1338816,58.8309596 L46.7277138,58.8309596 C44.2728125,61.3794833 40.821102,62.9710251 37,62.9710251 C29.5695724,62.9710251 23.5242105,56.961155 23.5242105,49.5750942 Z M30.8408389,65.742159 L30.8408389,65.719777 C32.7559539,66.443865 34.8323356,66.8425067 37,66.8425067 C39.1348026,66.8425067 41.180148,66.4565683 43.0703125,65.7536525 L43.0703125,66.9278002 C43.0703125,66.9380839 43.0709211,66.9465527 43.0709211,66.9568363 L37.0998026,87.9717219 L30.9023026,65.9254495 C30.8846546,65.8625379 30.8645724,65.8014411 30.8408389,65.742159 Z M70.1052632,95.1285185 L39.1122862,95.1285185 L46.4739474,69.2258875 L62.3389146,72.6739257 C66.8385526,73.6526845 70.1052632,77.6856795 70.1052632,82.2649163 L70.1052632,95.1285185 Z" id="Shape" fill-rule="nonzero"></path>
                <path d="M77.5,0 C65.6450057,0 56,9.56012164 56,21.3107822 C56,27.9793209 59.1506138,34.2447146 64.4794225,38.2690275 L64.4794225,43.0972516 C64.4794225,43.7424022 64.809361,44.3435518 65.3552595,44.6943711 C65.6708007,44.896538 66.034933,45 66.3990653,45 C66.6660156,45 66.9329659,44.945296 67.1831193,44.8341041 L73.1538086,42.1845269 C74.5797433,42.4741015 76.0386719,42.6215645 77.5,42.6215645 C89.3549943,42.6215645 99,33.0614428 99,21.3107822 C99,9.56012164 89.3549943,0 77.5,0 Z M77.5,38.8160677 C76.1148577,38.8160677 74.7333147,38.6555232 73.393164,38.339786 C72.9822405,38.2422701 72.5503208,38.282109 72.1639927,38.4539509 L68.3187082,40.1604783 L68.3187082,37.2992204 C68.3187082,36.6730973 68.0091658,36.0874075 67.4890625,35.7330207 C62.6995536,32.4591041 59.8392857,27.0671908 59.8392857,21.3107822 C59.8392857,11.6579018 67.7614119,3.80549683 77.5,3.80549683 C87.2385881,3.80549683 95.1607143,11.6579018 95.1607143,21.3107822 C95.1607143,30.9636627 87.2385881,38.8160677 77.5,38.8160677 Z" id="Shape" fill-rule="nonzero"></path>
                <path d="M82.8632135,8.60239891 L81.6326714,8.13224151 C81.0223572,7.90019214 80.3345918,7.97653221 79.7936737,8.33763248 C79.2527556,8.69933858 78.9287004,9.29794104 78.9287004,9.93895453 L78.9287004,17.5087311 C77.757021,16.8422708 76.3982198,16.4581473 74.9470969,16.4581473 C70.5652265,16.4581473 67,19.9443403 67,24.2290737 C67,28.5138071 70.5652265,32 74.9470969,32 C79.3295871,32 82.894194,28.5138071 82.894194,24.2290737 L82.894194,12.8980381 C84.2697246,13.6571968 85.4754824,14.6877867 86.4315382,15.9340673 C87.0883231,16.7895598 88.3318771,16.9634454 89.2073837,16.3200084 C90.08351,15.6771771 90.2600984,14.4617961 89.6026939,13.6056977 C87.8746061,11.3548797 85.5448786,9.62511243 82.8632135,8.60239891 Z M74.9470969,28.1224132 C72.7512049,28.1224132 70.9654936,26.3762873 70.9654936,24.2290737 C70.9654936,22.08186 72.7512049,20.3357341 74.9470969,20.3357341 C77.142989,20.3357341 78.9287004,22.08186 78.9287004,24.2290737 C78.9287004,26.3762873 77.142989,28.1224132 74.9470969,28.1224132 Z" id="Shape" fill-rule="nonzero"></path>
                <path d="M17.5,96 C17.1057813,96 16.7185937,96.1603126 16.4396874,96.4396874 C16.1607813,96.718125 16,97.1057813 16,97.5 C16,97.8942187 16.1607813,98.281875 16.4396874,98.5603126 C16.7185937,98.8396874 17.1057813,99 17.5,99 C17.8946874,99 18.281875,98.8396874 18.5607813,98.5603126 C18.8396874,98.281875 19,97.8942187 19,97.5 C19,97.1057813 18.8396874,96.718125 18.5607813,96.4396874 C18.281875,96.1603126 17.8946874,96 17.5,96 Z" id="Path"></path>
            </g>
        </g>
    </g>
</svg>