<?xml version="1.0" encoding="UTF-8"?>
<svg width="26px" height="14px" viewBox="0 0 26 14" version="1.1" xmlns="http://www.w3.org/2000/svg" xmlns:xlink="http://www.w3.org/1999/xlink">
    <!-- Generator: Sketch 52.4 (67378) - http://www.bohemiancoding.com/sketch -->
    <title>down-arrow</title>
    <desc>Created with Sketch.</desc>
    <g id="Boame-Web-app" stroke="none" stroke-width="1" fill="none" fill-rule="evenodd">
        <g id="Knowledge-Center-Add-Video" transform="translate(-2725.000000, -74.000000)">
            <g id="down-arrow" transform="translate(2725.000000, 74.000000)">
                <path d="M25.0271207,0.178027029 L12.9925023,12.5932713 L0.957883876,0.178027029 C0.733369079,-0.0456961804 0.375533719,-0.0392463053 0.158649351,0.192347938 C-0.0528831171,0.418312205 -0.0528831171,0.776498912 0.158649351,1.00240852 L12.5934414,13.829297 C12.814141,14.056901 13.1719233,14.056901 13.3926759,13.829297 L25.8274679,1.00240852 C26.0519827,0.77868531 26.0581825,0.409621272 25.8413511,0.177972369 C25.6244667,-0.0536218743 25.2666844,-0.0600170895 25.0421166,0.16365146 C25.0374005,0.168352216 25.0327905,0.173107633 25.0282334,0.177972369 L25.0271207,0.178027029 Z" id="Path" fill="#FFC107"></path>
                <path d="M12.9936515,13.9999991 C12.8436391,14.0002724 12.6996676,13.9390563 12.5934773,13.829742 L0.158669425,1.00350538 C-0.0582152183,0.771922906 -0.0519624971,0.402822966 0.172552586,0.179111125 C0.391609785,-0.0390803393 0.738847769,-0.0390803393 0.957851979,0.179111125 L12.9935985,12.5925767 L25.0282322,0.177963325 C25.2451168,-0.0536191494 25.6028997,-0.0600140395 25.8274677,0.163643143 C26.0519828,0.387354983 26.0581825,0.756400267 25.8413509,0.988037398 C25.8367938,0.992901887 25.8321838,0.997657062 25.8274677,1.00235758 L13.3927128,13.8285942 C13.2869465,13.9380178 13.1433988,13.9996165 12.9936515,13.9999991 Z" id="Path" fill="#000000"></path>
            </g>
        </g>
    </g>
</svg>