<?xml version="1.0" encoding="UTF-8"?>
<svg width="27px" height="28px" viewBox="0 0 27 28" version="1.1" xmlns="http://www.w3.org/2000/svg" xmlns:xlink="http://www.w3.org/1999/xlink">
    <!-- Generator: Sketch 52.4 (67378) - http://www.bohemiancoding.com/sketch -->
    <title>edit-bold</title>
    <desc>Created with Sketch.</desc>
    <g id="Boame-Web-app" stroke="none" stroke-width="1" fill="none" fill-rule="evenodd">
        <g id="Volunteers" transform="translate(-2267.000000, -798.000000)" fill="#FFFFFF">
            <g id="Table-row" transform="translate(132.000000, 716.000000)">
                <g id="edit-bold" transform="translate(2135.000000, 82.000000)">
                    <polygon id="Path" transform="translate(14.651536, 16.700430) rotate(-45.000000) translate(-14.651536, -16.700430) " points="6.22197003 15.0992106 23.2702925 14.2943391 23.0811027 18.3016484 6.03278022 19.1065199"></polygon>
                    <polygon id="Path" points="1.62162917 23 0 28 5 26.3783905"></polygon>
                    <polygon id="Path" transform="translate(10.872003, 12.545436) rotate(-45.000000) translate(-10.872003, -12.545436) " points="2.44243622 10.9442169 19.4907587 10.1393455 19.3015689 14.1466547 2.25324641 14.9515262"></polygon>
                    <polygon id="Path" transform="translate(21.205816, 5.343998) rotate(-45.000000) translate(-21.205816, -5.343998) " points="19.0284578 0.648741267 23.837229 0.421713496 23.3831734 10.0392557 18.5744023 10.2662835"></polygon>
                    <polygon id="Path" points="3.77796703 18 3 20.7985365 6.60127198 25 9 24.0923652"></polygon>
                </g>
            </g>
        </g>
    </g>
</svg>