<?xml version="1.0" encoding="UTF-8"?>
<svg width="80px" height="75px" viewBox="0 0 80 75" version="1.1" xmlns="http://www.w3.org/2000/svg" xmlns:xlink="http://www.w3.org/1999/xlink">
    <!-- Generator: Sketch 52.4 (67378) - http://www.bohemiancoding.com/sketch -->
    <title>envelope-9</title>
    <desc>Created with Sketch.</desc>
    <g id="Boame-Web-app" stroke="none" stroke-width="1" fill="none" fill-rule="evenodd">
        <g id="Dashboard-Menu-Clicked" transform="translate(-2608.000000, -1371.000000)" fill="#FFFFFF" fill-rule="nonzero">
            <g id="envelope-9" transform="translate(2608.000000, 1371.000000)">
                <path d="M77.9186667,18.259791 L73.3546667,1.40135121 L72.9693333,0 L43.9186667,7.70347303 L4,7.70347303 L4,18.259791 L0,18.259791 L0,21.2828565 L0,71.9769344 L0,75 L80,75 L80,71.9769344 L80,21.2828565 L80,18.259791 L77.9186667,18.259791 Z M5.61866667,20.8988705 L55.1666667,20.8988705 L68.9706667,20.8988705 L75.1546667,20.8988705 L48.7693333,47.3134171 L48.8346667,47.3754354 L41.5733333,54.5959569 C40.6906667,55.4074739 39.3093333,55.4061543 38.464,54.630265 L31.1666667,47.3754354 L31.2306667,47.3134171 L4.86266667,20.8988705 L5.61866667,20.8988705 Z M56.7613333,16.5918927 L64.4893333,14.5426475 L65.4946667,18.2584714 L57.2133333,18.2584714 L56.7613333,16.5918927 Z M27.3653333,47.3332102 L2.66666667,70.8500475 L2.66666667,22.7765755 L27.3653333,47.3332102 Z M29.2453333,49.202998 L36.6093333,56.525124 C37.5546667,57.3973398 38.768,57.835427 39.9866667,57.835427 C41.2173333,57.835427 42.4533333,57.388103 43.428,56.4894965 L50.756,49.202998 L75.0733333,72.359601 L4.91466667,72.359601 L29.2453333,49.202998 Z M52.636,47.3345297 L77.3333333,22.775256 L77.3333333,70.8500475 L52.636,47.3345297 Z M75.1586667,18.259791 L68.256,18.259791 L66.3746667,11.3110947 L53.496,14.7260635 L54.452,18.259791 L14.4133333,18.259791 L71.0893333,3.23023329 L75.1586667,18.259791 Z M33.9666667,10.3425525 L32.4586667,10.7423731 L6.66666667,17.5815476 L6.66666667,10.3425525 L33.9666667,10.3425525 Z" id="Shape"></path>
            </g>
        </g>
    </g>
</svg>