<?xml version="1.0" encoding="UTF-8"?>
<svg width="77px" height="82px" viewBox="0 0 77 82" version="1.1" xmlns="http://www.w3.org/2000/svg" xmlns:xlink="http://www.w3.org/1999/xlink">
    <!-- Generator: Sketch 52.4 (67378) - http://www.bohemiancoding.com/sketch -->
    <title>home-thin</title>
    <desc>Created with Sketch.</desc>
    <g id="Boame-Web-app" stroke="none" stroke-width="1" fill="none" fill-rule="evenodd">
        <g id="Dashboard-Menu-Clicked" transform="translate(-2307.000000, -1365.000000)" fill="#FFFFFF" fill-rule="nonzero">
            <g id="home-thin" transform="translate(2307.000000, 1365.000000)">
                <path d="M76.176759,36.0054538 L40.374762,0.777081282 C39.3317856,-0.259027094 37.6682871,-0.259027094 36.6253106,0.777081282 L0.824663355,36.0040783 C0.297607643,36.5224764 0,37.2368857 0,37.9834477 C0,39.5028784 1.20865145,40.7344822 2.69938905,40.7344822 L7.45706225,40.7344822 L7.45706225,79.2489655 C7.45706225,80.7683962 8.66554498,82 10.1564513,82 L29.0521746,82 C30.543081,82 31.7515637,80.7683962 31.7515637,79.2489655 L31.7515637,57.2406893 L45.2485089,57.2406893 L45.2485089,79.2489655 C45.2485089,80.7683962 46.4569917,82 47.947898,82 L66.8436213,82 C68.3345277,82 69.5430104,80.7683962 69.5430104,79.2489655 L69.5430104,40.7344822 L74.3006836,40.7344822 C75.0325554,40.7344822 75.7328782,40.4316964 76.2415443,39.8954167 C77.2776036,38.8029121 77.2485851,37.0613353 76.176759,36.0054538 Z M69.5430104,37.9834477 C68.0521041,37.9834477 66.8436213,39.2150514 66.8436213,40.7344822 L66.8436213,79.2489655 L47.947898,79.2489655 L47.947898,57.2406893 C47.947898,55.7212586 46.7394153,54.4896548 45.2485089,54.4896548 L31.7515637,54.4896548 C30.2606574,54.4896548 29.0521746,55.7212586 29.0521746,57.2406893 L29.0521746,79.2489655 L10.1564513,79.2489655 L10.1564513,40.7344822 C10.1564513,39.2150514 8.94796856,37.9834477 7.45706225,37.9834477 L2.69938905,37.9834477 L38.5000363,2.75645062 L74.3141805,37.9834477 L69.5430104,37.9834477 Z" id="Shape"></path>
            </g>
        </g>
    </g>
</svg>