<?xml version="1.0" encoding="UTF-8"?>
<svg width="90px" height="90px" viewBox="0 0 90 90" version="1.1" xmlns="http://www.w3.org/2000/svg" xmlns:xlink="http://www.w3.org/1999/xlink">
    <!-- Generator: Sketch 52.4 (67378) - http://www.bohemiancoding.com/sketch -->
    <title>knowledge-center</title>
    <desc>Created with Sketch.</desc>
    <g id="Boame-Web-app" stroke="none" stroke-width="1" fill="none" fill-rule="evenodd">
        <g id="Dashboard-Menu-Clicked" transform="translate(-2300.000000, -336.000000)" fill="#FFFFFF">
            <g id="Group-2" transform="translate(2238.000000, 285.000000)">
                <g id="knowledge-center" transform="translate(62.000000, 51.000000)">
                    <path d="M88.0833333,90 L45.9166667,90 C44.8586667,90 44,89.328 44,88.5 C44,87.672 44.8586667,87 45.9166667,87 L88.0833333,87 C89.1413333,87 90,87.672 90,88.5 C90,89.328 89.1413333,90 88.0833333,90 Z" id="Path"></path>
                    <path d="M87,88 L83.25,88 L83.25,56.6842105 L75.75,56.6842105 L75.75,88 L72,88 L72,54.8421053 C72,53.8252632 72.84,53 73.875,53 L85.125,53 C86.16,53 87,53.8252632 87,54.8421053 L87,88 Z" id="Path"></path>
                    <path d="M64,88 L60.25,88 L60.25,70.8181818 L52.75,70.8181818 L52.75,88 L49,88 L49,68.9090909 C49,67.8552727 49.84,67 50.875,67 L62.125,67 C63.16,67 64,67.8552727 64,68.9090909 L64,88 Z" id="Path"></path>
                    <path d="M5.62125,77 C4.35,77 3.12,76.5768455 2.1075,75.7750791 C0.76875,74.7097691 0,73.1210839 0,71.4173303 L0,11.6189199 C0,9.5365544 1.215,7.58781663 3.0975,6.65613438 C21.00375,-2.26722866 34.38,-2.23382173 45,6.84915222 C55.61625,-2.23010984 68.9925,-2.27094054 86.90625,6.65984626 C88.785,7.58781663 90,9.5365544 90,11.6189199 L90,42.7616054 C90,43.7860847 89.16,44.6175461 88.125,44.6175461 C87.09,44.6175461 86.25,43.7860847 86.25,42.7616054 L86.25,11.6189199 C86.25,10.9285099 85.84875,10.2863545 85.22625,9.97826829 C68.1825,1.47805974 55.81125,1.70448451 46.29375,10.6983733 C45.5775,11.3850714 44.42625,11.3850714 43.71,10.6983733 C34.185,1.70077263 21.8175,1.48177162 4.7775,9.97455641 C4.15125,10.2826426 3.75,10.9285099 3.75,11.6189199 L3.75,71.4173303 C3.75,71.98896 4.005,72.523471 4.455,72.8798116 C4.7175,73.0876769 5.28375,73.4068987 6.04125,73.243576 C19.755,70.0550698 30.8325,69.7506955 39.88875,72.3044699 C40.88625,72.5865729 41.46,73.6147641 41.175,74.5984127 C40.89,75.5820613 39.85875,76.1462673 38.8575,75.8752999 C30.43125,73.4885601 19.9725,73.8152057 6.8775,76.8626604 C6.46125,76.9554574 6.0375,77 5.62125,77 Z" id="Path"></path>
                    <path d="M46.5,64 C45.672,64 45,63.1488 45,62.1 L45,8.9 C45,7.8512 45.672,7 46.5,7 C47.328,7 48,7.8512 48,8.9 L48,62.1 C48,63.1488 47.328,64 46.5,64 Z" id="Path"></path>
                </g>
            </g>
        </g>
    </g>
</svg>