<?xml version="1.0" encoding="UTF-8"?>
<svg width="16px" height="42px" viewBox="0 0 16 42" version="1.1" xmlns="http://www.w3.org/2000/svg" xmlns:xlink="http://www.w3.org/1999/xlink">
    <!-- Generator: Sketch 52.4 (67378) - http://www.bohemiancoding.com/sketch -->
    <title>pause</title>
    <desc>Created with Sketch.</desc>
    <g id="Boame-Web-app" stroke="none" stroke-width="1" fill="none" fill-rule="evenodd">
        <g id="Cases-reported" transform="translate(-1117.000000, -924.000000)" fill="#FFFFFF">
            <g id="pause" transform="translate(1117.000000, 924.000000)">
                <path d="M1.5,0 C0.948,0 0.5,0.447 0.5,1 L0.5,41 C0.5,41.553 0.948,42 1.5,42 C2.052,42 2.5,41.553 2.5,41 L2.5,1 C2.5,0.447 2.052,0 1.5,0 Z" id="Path"></path>
                <path d="M14.5,0 C13.948,0 13.5,0.447 13.5,1 L13.5,41 C13.5,41.553 13.948,42 14.5,42 C15.052,42 15.5,41.553 15.5,41 L15.5,1 C15.5,0.447 15.052,0 14.5,0 Z" id="Path"></path>
            </g>
        </g>
    </g>
</svg>