<?xml version="1.0" encoding="UTF-8"?>
<svg width="32px" height="42px" viewBox="0 0 32 42" version="1.1" xmlns="http://www.w3.org/2000/svg" xmlns:xlink="http://www.w3.org/1999/xlink">
    <!-- Generator: Sketch 52.4 (67378) - http://www.bohemiancoding.com/sketch -->
    <title>play-button</title>
    <desc>Created with Sketch.</desc>
    <g id="Boame-Web-app" stroke="none" stroke-width="1" fill="none" fill-rule="evenodd">
        <g id="Cases-reported" transform="translate(-1114.000000, -923.000000)" fill="#FFFFFF" fill-rule="nonzero">
            <g id="Table-row" transform="translate(1032.000000, 836.000000)">
                <g id="play-button" transform="translate(82.000000, 87.000000)">
                    <path d="M31.068,20.176 L2.068,0.176 C1.761,-0.035 1.363,-0.057 1.035,0.114 C0.706,0.287 0.5,0.627 0.5,0.999 L0.5,40.999 C0.5,41.371 0.706,41.712 1.035,41.885 C1.181,41.961 1.341,41.999 1.5,41.999 C1.699,41.999 1.897,41.939 2.068,41.822 L31.068,21.822 C31.339,21.635 31.5,21.328 31.5,20.999 C31.5,20.67 31.338,20.363 31.068,20.176 Z M2.5,39.095 L2.5,2.904 L28.739,21 L2.5,39.095 Z" id="Shape"></path>
                </g>
            </g>
        </g>
    </g>
</svg>