<?xml version="1.0" encoding="UTF-8"?>
<svg width="71px" height="104px" viewBox="0 0 71 104" version="1.1" xmlns="http://www.w3.org/2000/svg" xmlns:xlink="http://www.w3.org/1999/xlink">
    <!-- Generator: Sketch 52.4 (67378) - http://www.bohemiancoding.com/sketch -->
    <title>reporter</title>
    <desc>Created with Sketch.</desc>
    <g id="Boame-Web-app" stroke="none" stroke-width="1" fill="none" fill-rule="evenodd">
        <g id="Dashboard-Menu-Clicked" transform="translate(-2304.000000, -1018.000000)" fill="#FFFFFF" fill-rule="nonzero">
            <g id="reporter" transform="translate(2304.000000, 1018.000000)">
                <path d="M69.4837102,40.0849853 C70.3209949,40.0849853 70.9997979,39.4004931 70.9997979,38.556191 L70.9997979,31.847638 C70.9997979,28.1090226 67.9835921,25.0673336 64.2758482,25.0673336 L64.2095447,25.0673336 C65.4747703,23.5627962 66.2400913,21.6181699 66.2400913,19.4957958 L66.2400913,16.656723 C66.2402935,7.47213478 58.8300615,0 49.7218114,0 C46.1193851,0 42.6954529,1.1492456 39.8203443,3.32380254 C39.1506379,3.83034304 39.0147964,4.78859127 39.5171268,5.46411449 C40.0196593,6.13963771 40.969943,6.27641384 41.6396495,5.76987335 C43.9857445,3.99545282 46.7806015,3.0575885 49.7220136,3.0575885 C57.1583223,3.0575885 63.2081183,9.15808909 63.2081183,16.656723 L63.2081183,19.4957958 C63.2081183,22.5680607 60.7294161,25.0673336 57.6828886,25.0673336 L41.7613408,25.0673336 C38.7146111,25.0673336 36.2361111,22.5678569 36.2361111,19.4957958 L36.2361111,16.656723 C36.2361111,14.4098031 36.7916056,12.1828595 37.8423554,10.2164224 C38.2395703,9.47322454 37.9640467,8.54595987 37.2268238,8.14541577 C36.4900052,7.74507552 35.5704475,8.02250072 35.1730304,8.76610624 C33.8847603,11.176709 33.2039358,13.9050972 33.2039358,16.656723 L33.2039358,19.4957958 C33.2039358,21.6191891 33.9712783,23.563 35.2377168,25.0673336 L35.168179,25.0673336 C31.4606372,25.0673336 28.4442293,28.1088188 28.4442293,31.847638 L28.4442293,45.3189653 C27.7688628,45.7097251 27.1395854,46.1911934 26.5741858,46.7613317 L20.463342,52.9233917 C19.4336153,53.9619526 18.064285,54.5337217 16.6078301,54.5337217 L1.51608761,54.5337217 C0.67880296,54.5337217 1.8189894e-12,55.2182138 1.8189894e-12,56.0625159 C1.8189894e-12,56.906818 0.67880296,57.5913102 1.51608761,57.5913102 L16.6074258,57.5913102 C18.8738757,57.5913102 21.0044842,56.7013481 22.6070899,55.0853106 L28.7179337,48.9232506 C29.8216455,47.8102884 31.2892183,47.1973438 32.8501821,47.1973438 L46.4583823,47.1973438 C49.4905576,47.1973438 51.9575353,49.6849978 51.9575353,52.7425863 L51.9575353,65.11787 C51.9575353,66.554529 50.7984358,67.7233431 49.3735156,67.7233431 L49.3533011,67.7233431 C45.6409079,67.7233431 42.6204571,64.6777811 42.6204571,60.9342736 L42.6204571,56.6361195 C42.6204571,55.7918174 41.9416541,55.1073253 41.1043695,55.1073253 C40.2670848,55.1073253 39.5882819,55.7918174 39.5882819,56.6361195 L39.5882819,60.9342736 L39.5882819,61.2793734 C39.5882819,64.8324951 36.7214613,67.7233431 33.1978715,67.7233431 L26.4603782,67.7233431 C25.6230935,67.7233431 24.9442905,68.4078353 24.9442905,69.2521374 C24.9442905,70.0964395 25.6230935,70.7809316 26.4603782,70.7809316 L33.1978715,70.7809316 C34.7062776,70.7809316 36.1318042,70.4197285 37.397232,69.7815079 L38.0499583,76.3579731 C38.1281884,77.1464232 38.7873833,77.7344994 39.5567472,77.7344994 C39.6072835,77.7344994 39.658224,77.7320533 39.7095689,77.7267535 C40.5428106,77.6425679 41.1504585,76.8934587 41.0671748,76.0532334 L40.2278687,67.596759 C40.5802074,67.1984571 40.8993944,66.769987 41.1821953,66.3158332 C42.8321029,68.8542432 45.6111926,70.5815769 48.7949766,70.7634014 C47.1030228,71.9719643 45.9954702,73.9600083 45.9954702,76.2052975 C45.9954702,78.2705966 46.931806,80.1194184 48.3985702,81.3432692 C46.9316038,82.5671199 45.9954702,84.4159418 45.9954702,86.4812409 C45.9954702,90.1572776 48.9613419,93.1480069 52.6068251,93.1480069 L55.5021481,93.1480069 L54.9005646,99.2095742 C54.8025243,100.197379 53.9864648,100.942208 53.0020186,100.942208 L45.2639074,100.942208 C44.2794612,100.942208 43.4634018,100.197379 43.3653615,99.2095742 L41.7138367,82.5685468 C41.6303508,81.7283215 40.886255,81.1143577 40.0544283,81.1995625 C39.2211865,81.2837481 38.6135386,82.0328573 38.6968223,82.8730826 L39.3412606,89.3676045 L23.9062759,89.3676045 C20.735227,89.3676045 18.1556545,86.7662082 18.1556545,83.5687859 C18.1556545,82.7244838 17.4768515,82.0399917 16.6395669,82.0399917 C15.8022822,82.0399917 15.1234793,82.7244838 15.1234793,83.5687859 C15.1234793,83.9208163 15.1463217,84.2675468 15.1861442,84.6091814 L1.53893,84.6091814 C0.701645347,84.6091814 0.0228423867,85.2936735 0.0228423867,86.1379756 C0.0228423867,86.9822777 0.701645347,87.6667699 1.53893,87.6667699 L16.1236928,87.6667699 C17.5928828,90.4921855 20.528837,92.4253968 23.9060737,92.4253968 L39.6444782,92.4253968 L40.3479428,99.5143138 C40.601837,102.071477 42.7150609,104 45.2637053,104 L53.0018165,104 C55.5504608,104 57.6636848,102.071681 57.9175789,99.5143138 L58.5492821,93.1484146 L64.3886451,93.1484146 C68.0341283,93.1484146 71,90.1576853 71,86.4816486 C71,84.4163495 70.0636643,82.5675276 68.5969001,81.3436769 C70.0638664,80.1198261 71,78.2710043 71,76.2057051 C71,74.140406 70.0636643,72.2915842 68.5969001,71.0677334 C70.0638664,69.8438827 71,67.9950608 71,65.9297617 C71,63.8644626 70.0636643,62.0156407 68.5969001,60.79179 C70.0638664,59.5679392 71,57.7191174 71,55.6538183 C71,53.8979471 70.3222078,52.2996437 69.2180917,51.1075918 C70.3003761,50.273074 71,48.958311 71,47.4812919 L71,45.0708929 C71,44.2265908 70.321197,43.5420987 69.4839124,43.5420987 C68.6466277,43.5420987 67.9678248,44.2265908 67.9678248,45.0708929 L67.9678248,47.4812919 C67.9678248,48.3115291 67.2981183,48.9868484 66.4745796,48.9868484 L54.1322114,48.9868484 C52.7469116,46.1198496 49.8279376,44.1393476 46.4581802,44.1393476 L32.8499799,44.1393476 C32.3854507,44.1393476 31.9265815,44.1762425 31.4760003,44.2465671 L31.4760003,31.8470265 C31.4760003,29.7943654 33.1321744,28.1243106 35.1677747,28.1243106 L64.2758482,28.1243106 C66.3114485,28.1243106 67.9676226,29.7941616 67.9676226,31.8470265 L67.9676226,38.5555795 C67.9676226,39.4004931 68.6464256,40.0849853 69.4837102,40.0849853 Z M67.9676226,86.4816486 C67.9676226,88.471731 66.3619848,90.0908261 64.388443,90.0908261 L52.6062187,90.0908261 C50.6326769,90.0908261 49.027039,88.471731 49.027039,86.4816486 C49.027039,84.4915662 50.6326769,82.8724711 52.6062187,82.8724711 L64.388443,82.8724711 C66.3621869,82.8724711 67.9676226,84.4915662 67.9676226,86.4816486 Z M67.9676226,76.2057051 C67.9676226,78.1957876 66.3619848,79.8148826 64.388443,79.8148826 L52.6062187,79.8148826 C50.6326769,79.8148826 49.027039,78.1957876 49.027039,76.2057051 C49.027039,74.2156227 50.6326769,72.5965277 52.6062187,72.5965277 L64.388443,72.5965277 C66.3621869,72.5965277 67.9676226,74.2156227 67.9676226,76.2057051 Z M67.9676226,65.9299655 C67.9676226,67.920048 66.3619848,69.539143 64.388443,69.539143 L52.8768908,69.539143 C54.1633417,68.5005821 54.9893062,66.9051324 54.9893062,65.1180739 L54.9893062,62.3209919 L64.388443,62.3209919 C66.3621869,62.3207881 67.9676226,63.9398831 67.9676226,65.9299655 Z M64.3886451,52.0450485 C66.3621869,52.0450485 67.9678248,53.6641435 67.9678248,55.6542259 C67.9678248,57.6443084 66.3621869,59.2634034 64.3886451,59.2634034 L54.9895084,59.2634034 L54.9895084,52.7427902 C54.9895084,52.5077635 54.9773797,52.2755906 54.9589845,52.0452523 L64.3886451,52.0452523 L64.3886451,52.0450485 Z" id="Shape"></path>
            </g>
        </g>
    </g>
</svg>