<?xml version="1.0" encoding="UTF-8"?>
<svg width="34px" height="36px" viewBox="0 0 34 36" version="1.1" xmlns="http://www.w3.org/2000/svg" xmlns:xlink="http://www.w3.org/1999/xlink">
    <!-- Generator: Sketch 52.4 (67378) - http://www.bohemiancoding.com/sketch -->
    <title>search</title>
    <desc>Created with Sketch.</desc>
    <g id="Boame-Web-app" stroke="none" stroke-width="1" fill="none" fill-rule="evenodd">
        <g id="Dashboard" transform="translate(-992.000000, -61.000000)" fill="#C3C3C3" fill-rule="nonzero">
            <g id="search" transform="translate(992.000000, 61.000000)">
                <path d="M33.814204,34.8492996 L23.9081443,24.3461843 C26.4348262,21.7627157 28.0001689,18.2011857 28.0001689,14.2733074 C28.0001689,6.40259789 21.720131,0 14.0000845,0 C6.28003789,0 0,6.40259789 0,14.2733074 C0,22.1440169 6.28003789,28.5466148 14.0000845,28.5466148 C17.3887716,28.5466148 20.4987903,27.3116339 22.922805,25.2623947 L32.8528649,35.7913378 C32.9835323,35.9306725 33.1582001,36 33.3335345,36 C33.5002021,36 33.6662031,35.9367896 33.7955372,35.8103689 C34.0608722,35.550051 34.0688722,35.1198127 33.814204,34.8492996 Z M14.0000845,27.1872522 C7.01537566,27.1872522 1.33334138,21.3943284 1.33334138,14.2733074 C1.33334138,7.15228637 7.01537566,1.35936261 14.0000845,1.35936261 C20.9847933,1.35936261 26.6668276,7.15228637 26.6668276,14.2733074 C26.6668276,21.3943284 20.9841266,27.1872522 14.0000845,27.1872522 Z" id="Shape"></path>
            </g>
        </g>
    </g>
</svg>