<?xml version="1.0" encoding="UTF-8"?>
<svg width="79px" height="84px" viewBox="0 0 79 84" version="1.1" xmlns="http://www.w3.org/2000/svg" xmlns:xlink="http://www.w3.org/1999/xlink">
    <!-- Generator: Sketch 52.4 (67378) - http://www.bohemiancoding.com/sketch -->
    <title>statistics2</title>
    <desc>Created with Sketch.</desc>
    <g id="Boame-Web-app" stroke="none" stroke-width="1" fill="none" fill-rule="evenodd">
        <g id="Dashboard-Menu-Clicked" transform="translate(-2610.000000, -1027.000000)" fill="#FFFFFF">
            <g id="statistics2" transform="translate(2610.000000, 1027.000000)">
                <rect id="Rectangle" x="21" y="56" width="3" height="28"></rect>
                <rect id="Rectangle" x="38" y="52" width="3" height="32"></rect>
                <rect id="Rectangle" x="6" y="74" width="3" height="10"></rect>
                <rect id="Rectangle" x="55" y="40" width="3" height="44"></rect>
                <rect id="Rectangle" x="70" y="30" width="3" height="54"></rect>
                <path d="M78.4122782,0.540943183 C78.006813,0.200349327 77.4999816,0 76.9526037,0 L63.0654229,0 C61.9503938,0 61.0380972,0.901571972 61.0380972,2.00349327 C61.0380972,3.10541457 61.9503938,4.00698654 63.0654229,4.00698654 L72.0262023,3.98695161 L50.1108119,25.6647488 L42.4272477,18.0314394 C42.0420558,17.6507757 41.5352244,17.4303915 40.9878464,17.4103565 C40.4404685,17.4303915 39.9336371,17.6507757 39.5484452,18.0314394 L0.623792511,56.5385801 C-0.187137753,57.2999075 -0.20741101,58.5821432 0.562972741,59.3835405 C1.33335649,60.1849378 2.63084492,60.2049728 3.44177518,59.4436453 C3.46204844,59.4236104 3.48232169,59.4035755 3.50259495,59.4035755 L41.0081197,22.33895 L48.691684,29.9121545 C49.0768758,30.2727833 49.5837072,30.4731326 50.1310852,30.4731326 C50.6581898,30.4731326 51.1852945,30.2727833 51.5704864,29.9121545 L74.9453485,6.81187712 L74.9250753,15.6472824 C74.9250753,16.7492037 75.8170986,17.6307408 76.9321277,17.6307408 L76.9524009,17.6307408 C78.0674301,17.6507757 78.9594533,16.7692387 78.9797266,15.6673174 C78.9797266,15.6673174 78.9797266,15.6673174 78.9797266,15.6472824 L78.9999999,1.94338847 C79.0002026,1.42248022 78.7771968,0.921606904 78.4122782,0.540943183 Z" id="Path"></path>
            </g>
        </g>
    </g>
</svg>