<?xml version="1.0" encoding="UTF-8"?>
<svg width="20px" height="24px" viewBox="0 0 20 24" version="1.1" xmlns="http://www.w3.org/2000/svg" xmlns:xlink="http://www.w3.org/1999/xlink">
    <!-- Generator: Sketch 52.4 (67378) - http://www.bohemiancoding.com/sketch -->
    <title>trash-bold</title>
    <desc>Created with Sketch.</desc>
    <g id="Boame-Web-app" stroke="none" stroke-width="1" fill="none" fill-rule="evenodd">
        <g id="Volunteers" transform="translate(-2350.000000, -800.000000)" fill="#FFFFFF" fill-rule="nonzero">
            <g id="Table-row" transform="translate(132.000000, 716.000000)">
                <g id="trash-bold" transform="translate(2218.000000, 84.000000)">
                    <path d="M18.0769231,2.94736842 L13.8461538,2.94736842 L13.8461538,2.21052632 C13.8461538,0.989671053 12.8129808,0 11.5384615,0 L8.46153846,0 C7.18701923,0 6.15384615,0.989671053 6.15384615,2.21052632 L6.15384615,2.94736842 L1.92307692,2.94736842 C0.861009615,2.94736842 0,3.772125 0,4.78947368 L0,6.26315789 C0,6.670125 0.344375,7 0.769230769,7 L19.2307692,7 C19.655625,7 20,6.670125 20,6.26315789 L20,4.78947368 C20,3.772125 19.1389904,2.94736842 18.0769231,2.94736842 Z M7.69230769,2.21052632 C7.69230769,1.80434211 8.0375,1.47368421 8.46153846,1.47368421 L11.5384615,1.47368421 C11.9625,1.47368421 12.3076923,1.80434211 12.3076923,2.21052632 L12.3076923,2.94736842 L7.69230769,2.94736842 L7.69230769,2.21052632 Z" id="Shape"></path>
                    <path d="M1.24638192,9 C1.10569209,9 0.993583725,9.10911585 1.00028559,9.23954268 L1.65076048,21.9091463 C1.71088013,23.0817073 2.74868326,24 4.01316704,24 L15.986833,24 C17.2513167,24 18.2891199,23.0817073 18.3492395,21.9091463 L18.9997144,9.23954268 C19.0064163,9.10911585 18.8943079,9 18.7536181,9 L1.24638192,9 Z M13.1538177,10.8292683 C13.1538177,10.425 13.506651,10.097561 13.9422721,10.097561 C14.3778932,10.097561 14.7307265,10.425 14.7307265,10.8292683 L14.7307265,20.3414634 C14.7307265,20.7457317 14.3778932,21.0731707 13.9422721,21.0731707 C13.506651,21.0731707 13.1538177,20.7457317 13.1538177,20.3414634 L13.1538177,10.8292683 Z M9.21154558,10.8292683 C9.21154558,10.425 9.56437893,10.097561 10,10.097561 C10.4356211,10.097561 10.7884544,10.425 10.7884544,10.8292683 L10.7884544,20.3414634 C10.7884544,20.7457317 10.4356211,21.0731707 10,21.0731707 C9.56437893,21.0731707 9.21154558,20.7457317 9.21154558,20.3414634 L9.21154558,10.8292683 Z M5.26927348,10.8292683 C5.26927348,10.425 5.62210684,10.097561 6.0577279,10.097561 C6.49334897,10.097561 6.84618232,10.425 6.84618232,10.8292683 L6.84618232,20.3414634 C6.84618232,20.7457317 6.49334897,21.0731707 6.0577279,21.0731707 C5.62210684,21.0731707 5.26927348,20.7457317 5.26927348,20.3414634 L5.26927348,10.8292683 Z" id="Shape"></path>
                </g>
            </g>
        </g>
    </g>
</svg>