<?xml version="1.0" encoding="UTF-8"?>
<svg width="27px" height="34px" viewBox="0 0 27 34" version="1.1" xmlns="http://www.w3.org/2000/svg" xmlns:xlink="http://www.w3.org/1999/xlink">
    <!-- Generator: Sketch 52.4 (67378) - http://www.bohemiancoding.com/sketch -->
    <title>trash-bold</title>
    <desc>Created with Sketch.</desc>
    <g id="Boame-Web-app" stroke="none" stroke-width="1" fill="none" fill-rule="evenodd">
        <g id="Knowledge-Center" transform="translate(-1468.000000, -1049.000000)" fill="#FFFFFF" fill-rule="nonzero">
            <g id="trash-bold" transform="translate(1468.000000, 1049.000000)">
                <path d="M24.4038462,4.21052632 L18.6923077,4.21052632 L18.6923077,3.15789474 C18.6923077,1.41381579 17.297524,0 15.5769231,0 L11.4230769,0 C9.70247596,0 8.30769231,1.41381579 8.30769231,3.15789474 L8.30769231,4.21052632 L2.59615385,4.21052632 C1.16236298,4.21052632 0,5.38875 0,6.84210526 L0,8.94736842 C0,9.52875 0.46490625,10 1.03846154,10 L25.9615385,10 C26.5350937,10 27,9.52875 27,8.94736842 L27,6.84210526 C27,5.38875 25.837637,4.21052632 24.4038462,4.21052632 Z M10.3846154,3.15789474 C10.3846154,2.57763158 10.850625,2.10526316 11.4230769,2.10526316 L15.5769231,2.10526316 C16.149375,2.10526316 16.6153846,2.57763158 16.6153846,3.15789474 L16.6153846,4.21052632 L10.3846154,4.21052632 L10.3846154,3.15789474 Z" id="Shape"></path>
                <path d="M2.32850923,12 C2.14092278,12 1.99144497,12.1600366 2.00038078,12.3513293 L2.86768064,30.9334146 C2.94784018,32.6531707 4.33157768,34 6.01755605,34 L21.982444,34 C23.6684223,34 25.0521598,32.6531707 25.1323194,30.9334146 L25.9996192,12.3513293 C26.008555,12.1600366 25.8590772,12 25.6714908,12 L2.32850923,12 Z M18.2050902,14.6829268 C18.2050902,14.09 18.6755347,13.6097561 19.2563628,13.6097561 C19.8371909,13.6097561 20.3076354,14.09 20.3076354,14.6829268 L20.3076354,28.6341463 C20.3076354,29.2270732 19.8371909,29.7073171 19.2563628,29.7073171 C18.6755347,29.7073171 18.2050902,29.2270732 18.2050902,28.6341463 L18.2050902,14.6829268 Z M12.9487274,14.6829268 C12.9487274,14.09 13.4191719,13.6097561 14,13.6097561 C14.5808281,13.6097561 15.0512726,14.09 15.0512726,14.6829268 L15.0512726,28.6341463 C15.0512726,29.2270732 14.5808281,29.7073171 14,29.7073171 C13.4191719,29.7073171 12.9487274,29.2270732 12.9487274,28.6341463 L12.9487274,14.6829268 Z M7.69236465,14.6829268 C7.69236465,14.09 8.16280912,13.6097561 8.7436372,13.6097561 C9.32446529,13.6097561 9.79490976,14.09 9.79490976,14.6829268 L9.79490976,28.6341463 C9.79490976,29.2270732 9.32446529,29.7073171 8.7436372,29.7073171 C8.16280912,29.7073171 7.69236465,29.2270732 7.69236465,28.6341463 L7.69236465,14.6829268 Z" id="Shape"></path>
            </g>
        </g>
    </g>
</svg>