<?xml version="1.0" encoding="UTF-8"?>
<svg width="49px" height="50px" viewBox="0 0 49 50" version="1.1" xmlns="http://www.w3.org/2000/svg" xmlns:xlink="http://www.w3.org/1999/xlink">
    <!-- Generator: Sketch 52.4 (67378) - http://www.bohemiancoding.com/sketch -->
    <title>video-player-2</title>
    <desc>Created with Sketch.</desc>
    <g id="Boame-Web-app" stroke="none" stroke-width="1" fill="none" fill-rule="evenodd">
        <g id="Knowledge-Center-Add-Video" transform="translate(-1923.000000, -883.000000)" fill="#FFFFFF">
            <g id="video-player-2" transform="translate(1923.000000, 883.000000)">
                <path d="M18.4790769,23.884686 C18.6175385,23.961562 18.7707692,24 18.9230769,24 C19.0956923,24 19.2673846,23.9503118 19.4187692,23.853748 L29.5726154,17.2911603 C29.8384615,17.1186579 30,16.820529 30,16.4998997 C30,16.1792704 29.8384615,15.8811414 29.5726154,15.7086391 L19.4187692,9.1460513 C19.1326154,8.96323635 18.7753846,8.95104869 18.4781538,9.11511339 C18.1836923,9.28011559 18,9.59511981 18,9.93731188 L18,23.0624875 C18,23.4046795 18.1836923,23.7196838 18.4790769,23.884686 Z M19.8461538,11.6445222 L27.3581538,16.4998997 L19.8461538,21.3552771 L19.8461538,11.6445222 Z" id="Shape" fill-rule="nonzero"></path>
                <path d="M0,0 L0,50 L49,50 L49,0 L0,0 Z M47.1851852,1.81818182 L47.1851852,31.8181818 L1.81481481,31.8181818 L1.81481481,1.81818182 L47.1851852,1.81818182 Z M1.81481481,48.1818182 L1.81481481,33.6363636 L47.1851852,33.6363636 L47.1851852,48.1818182 L1.81481481,48.1818182 Z" id="Shape" fill-rule="nonzero"></path>
                <path d="M42.09375,39.625 L20.34375,39.625 L20.34375,37.875 C20.34375,37.391125 19.9386563,37 19.4375,37 C18.9363437,37 18.53125,37.391125 18.53125,37.875 L18.53125,39.625 L14.90625,39.625 C14.4050937,39.625 14,40.016125 14,40.5 C14,40.983875 14.4050937,41.375 14.90625,41.375 L18.53125,41.375 L18.53125,43.125 C18.53125,43.608875 18.9363437,44 19.4375,44 C19.9386563,44 20.34375,43.608875 20.34375,43.125 L20.34375,41.375 L42.09375,41.375 C42.5949062,41.375 43,40.983875 43,40.5 C43,40.016125 42.5949062,39.625 42.09375,39.625 Z" id="Path"></path>
                <path d="M6,37 C5.447,37 5,37.391125 5,37.875 L5,43.125 C5,43.608875 5.447,44 6,44 C6.553,44 7,43.608875 7,43.125 L7,37.875 C7,37.391125 6.553,37 6,37 Z" id="Path"></path>
                <path d="M9,37 C8.447,37 8,37.391125 8,37.875 L8,43.125 C8,43.608875 8.447,44 9,44 C9.553,44 10,43.608875 10,43.125 L10,37.875 C10,37.391125 9.553,37 9,37 Z" id="Path"></path>
            </g>
        </g>
    </g>
</svg>