<?xml version="1.0" encoding="UTF-8"?>
<svg width="34px" height="19px" viewBox="0 0 34 19" version="1.1" xmlns="http://www.w3.org/2000/svg" xmlns:xlink="http://www.w3.org/1999/xlink">
    <!-- Generator: Sketch 52.4 (67378) - http://www.bohemiancoding.com/sketch -->
    <title>view</title>
    <desc>Created with Sketch.</desc>
    <g id="Boame-Web-app" stroke="none" stroke-width="1" fill="none" fill-rule="evenodd">
        <g id="Cases-reported" transform="translate(-2575.000000, -925.000000)" fill="#FFFFFF">
            <g id="Table-row" transform="translate(1032.000000, 836.000000)">
                <g id="view" transform="translate(1543.000000, 89.000000)">
                    <path d="M29.3256533,4.99585689 C22.4976267,-1.66528563 11.388659,-1.66528563 4.56063242,4.99585689 L0,9.44446247 L4.6737724,14.004003 C8.08749852,17.3342942 12.5717471,19 17.05657,19 C21.5413929,19 26.0250671,17.3348544 29.4393676,14.004003 L34,9.55483719 L29.3256533,4.99585689 Z M28.6267124,13.2117703 C22.2466512,19.4353358 11.8659144,19.4353358 5.48585328,13.2117703 L1.62416175,9.44446247 L5.3727133,5.7875294 C11.7527744,-0.436036182 22.1335113,-0.436036182 28.5135724,5.7875294 L32.3752639,9.55483719 L28.6267124,13.2117703 Z" id="Shape" fill-rule="nonzero"></path>
                    <path d="M16.375,4 C13.9625,4 12,5.9625 12,8.375 C12,8.72 12.28,9 12.625,9 C12.97,9 13.25,8.72 13.25,8.375 C13.25,6.651875 14.651875,5.25 16.375,5.25 C16.72,5.25 17,4.97 17,4.625 C17,4.28 16.720625,4 16.375,4 Z" id="Path"></path>
                    <path d="M16.5,2 C12.3646154,2 9,5.36461538 9,9.5 C9,13.6353846 12.3646154,17 16.5,17 C20.6353846,17 24,13.6353846 24,9.5 C24,5.36461538 20.6359615,2 16.5,2 Z M16.5,15.8461538 C13.0009615,15.8461538 10.1538462,12.9990385 10.1538462,9.5 C10.1538462,6.00096154 13.0009615,3.15384615 16.5,3.15384615 C19.9990385,3.15384615 22.8461538,6.00096154 22.8461538,9.5 C22.8461538,12.9990385 19.9996154,15.8461538 16.5,15.8461538 Z" id="Shape" fill-rule="nonzero"></path>
                </g>
            </g>
        </g>
    </g>
</svg>