<?xml version="1.0" encoding="UTF-8"?>
<svg width="65px" height="105px" viewBox="0 0 65 105" version="1.1" xmlns="http://www.w3.org/2000/svg" xmlns:xlink="http://www.w3.org/1999/xlink">
    <!-- Generator: Sketch 52.4 (67378) - http://www.bohemiancoding.com/sketch -->
    <title>volunteer</title>
    <desc>Created with Sketch.</desc>
    <g id="Boame-Web-app" stroke="none" stroke-width="1" fill="none" fill-rule="evenodd">
        <g id="Dashboard-Menu-Clicked" transform="translate(-2310.000000, -674.000000)" fill="#FFFFFF">
            <g id="volunteer" transform="translate(2310.000000, 674.000000)">
                <circle id="Oval" cx="36.5" cy="102.5" r="2.5"></circle>
                <path d="M56.875,16.40625 C55.3956406,16.40625 54.0085,16.8094336 52.8125,17.5099805 L52.8125,16.40625 C52.8125,11.8830469 49.167625,8.203125 44.6875,8.203125 C43.2081406,8.203125 41.821,8.60630859 40.625,9.30685547 L40.625,8.203125 C40.625,3.67992187 36.980125,0 32.5,0 C28.019875,0 24.375,3.67992187 24.375,8.203125 L24.375,9.30685547 C23.179,8.60630859 21.7918594,8.203125 20.3125,8.203125 C15.832375,8.203125 12.1875,11.8830469 12.1875,16.40625 L12.1875,42.4669629 C9.6045625,39.8023828 6.0068125,38.1445312 2.03125,38.1445312 C0.90959375,38.1445312 0,39.0628711 0,40.1953125 L0,73.0078125 C0,78.7850684 2.73345313,84.3049512 7.3125,87.7734375 L10.5622969,90.2341699 C13.858,92.7305859 16.25,98.077998 16.25,102.949219 C16.25,104.08166 17.1595938,105 18.28125,105 L27.421875,105 C28.5435313,105 29.453125,104.08166 29.453125,102.949219 C29.453125,101.816777 28.5435313,100.898437 27.421875,100.898437 L20.2028125,100.898437 C19.6956094,96.0317285 17.4124844,90.2954883 13,86.953125 L9.75020313,84.4923926 C6.1888125,81.7945898 4.0625,77.5012793 4.0625,73.0078125 L4.0625,42.4521973 C8.69253125,43.4049902 12.1875,47.5483887 12.1875,52.5 L12.1875,64.8046875 C12.1875,65.9371289 13.0970938,66.8554687 14.21875,66.8554687 C16.4565781,66.8554687 18.6578438,67.3872363 20.6381094,68.3988867 C21.8674219,73.5810059 26.5175625,77.584541 33.0648906,83.2163965 C34.4030781,84.3675 35.7867656,85.5579785 37.2565781,86.855918 C37.6392656,87.1942969 38.1164063,87.3632812 38.59375,87.3632812 C39.0710938,87.3632812 39.5482344,87.1942969 39.931125,86.855918 C41.4007344,85.5579785 42.784625,84.3675 44.1228125,83.2163965 C51.80175,76.6108301 56.875,72.2469727 56.875,65.5921875 C56.875,59.5370508 52.6201406,54.5507812 46.71875,54.5507812 C42.683875,54.5507812 40.1245,56.8765723 38.59375,59.122998 C37.063,56.8765723 34.503625,54.5507812 30.46875,54.5507812 C25.1615,54.5507812 21.1648125,58.5879492 20.4341719,63.8506641 C19.0854219,63.3592969 17.6806094,63.028916 16.25,62.8679297 C16.25,61.627207 16.25,17.6658398 16.25,16.40625 C16.25,14.1446484 18.0724375,12.3046875 20.3125,12.3046875 C22.5525625,12.3046875 24.375,14.1446484 24.375,16.40625 L24.375,44.296875 C24.375,45.4293164 25.2845938,46.3476562 26.40625,46.3476562 C27.5279063,46.3476562 28.4375,45.4293164 28.4375,44.296875 L28.4375,8.203125 C28.4375,5.94152344 30.2599375,4.1015625 32.5,4.1015625 C34.7400625,4.1015625 36.5625,5.94152344 36.5625,8.203125 L36.5625,44.296875 C36.5625,45.4293164 37.4720938,46.3476562 38.59375,46.3476562 C39.7154063,46.3476562 40.625,45.4293164 40.625,44.296875 L40.625,16.40625 C40.625,14.1446484 42.4474375,12.3046875 44.6875,12.3046875 C46.9275625,12.3046875 48.75,14.1446484 48.75,16.40625 L48.75,44.296875 C48.75,45.4293164 49.6595938,46.3476562 50.78125,46.3476562 C51.9029063,46.3476562 52.8125,45.4293164 52.8125,44.296875 L52.8125,24.609375 C52.8125,22.3477734 54.6349375,20.5078125 56.875,20.5078125 C59.1150625,20.5078125 60.9375,22.3477734 60.9375,24.609375 L60.9375,73.2969727 C60.9375,77.9009766 59.6425781,82.3876758 57.1926875,86.2720605 C54.8037344,90.0600586 53.1738594,95.6377734 52.8655156,100.898437 L45.703125,100.898437 C44.5814688,100.898437 43.671875,101.816777 43.671875,102.949219 C43.671875,104.08166 44.5814688,105 45.703125,105 L54.84375,105 C55.9654063,105 56.875,104.08166 56.875,102.949219 L56.875,102.680566 C56.875,97.657793 58.3448125,92.0817187 60.6198125,88.4748047 C63.4852969,83.9312988 65,78.6827344 65,73.2969727 L65,24.609375 C65,20.0861719 61.355125,16.40625 56.875,16.40625 Z M30.46875,58.6523437 C34.9931563,58.6523437 36.5714375,64.0957324 36.6368438,64.3295215 C36.8814063,65.2160742 37.6815156,65.8300781 38.59375,65.8300781 C39.508625,65.8300781 40.3105625,65.2125879 40.5526875,64.3219336 C40.568125,64.2649219 42.1455938,58.6523437 46.71875,58.6523437 C50.1927969,58.6523437 52.8125,61.6358203 52.8125,65.5921875 C52.8125,70.3530762 48.550125,74.019873 41.4880781,80.0944922 C40.5510625,80.9006543 39.5917031,81.7256836 38.59375,82.5958301 C37.5957969,81.7256836 36.6364375,80.9004492 35.6994219,80.0944922 C28.637375,74.019873 24.375,70.3530762 24.375,65.5921875 C24.375,61.6358203 26.9947031,58.6523437 30.46875,58.6523437 Z" id="Shape" fill-rule="nonzero"></path>
            </g>
        </g>
    </g>
</svg>